<svg width="616" height="221" viewBox="0 0 616 221" fill="none" xmlns="http://www.w3.org/2000/svg">
<g clip-path="url(#clip0_102_5048)">
<rect width="615.49" height="220.67" fill="url(#paint0_linear_102_5048)"/>
<g clip-path="url(#clip1_102_5048)">
<rect x="291.16" y="124.01" width="162" height="112" rx="4.5" stroke="#CECECE"/>
<rect x="286.86" y="124.71" width="184.6" height="9.6" rx="3.8" fill="#1C2D39" stroke="#354450" stroke-width="0.4"/>
<rect x="291.66" y="124.51" width="32" height="131" fill="#1C2D39"/>
<rect opacity="0.4" x="295.66" y="142.51" width="26" height="5" fill="#52B2A6"/>
<rect opacity="0.4" x="295.66" y="136.51" width="26" height="5" fill="#5B6773"/>
<rect opacity="0.4" x="295.66" y="148.51" width="26" height="5" fill="#5B6773"/>
<rect opacity="0.4" x="295.66" y="154.51" width="26" height="5" fill="#5B6773"/>
<rect x="295.66" y="127.51" width="21" height="4" fill="#F9F9F9"/>
<rect x="325.66" y="127.51" width="5" height="5" rx="0.821429" fill="#52B2A6"/>
<rect x="332.866" y="127.715" width="4.58929" height="4.58929" rx="0.616071" stroke="white" stroke-width="0.410714"/>
<rect x="337.866" y="127.715" width="4.58929" height="4.58929" rx="0.616071" stroke="white" stroke-width="0.410714"/>
<rect x="343.866" y="127.715" width="4.58929" height="4.58929" rx="0.616071" stroke="white" stroke-width="0.410714"/>
<path d="M324.715 141.51H453.715" stroke="#EAEAEA" stroke-width="0.5"/>
<rect x="353.66" y="157.51" width="22" height="5" fill="#D9D9D9"/>
<path d="M441.66 141.51V238.51" stroke="#EAEAEA" stroke-width="0.5"/>
<rect x="323.66" y="134.51" width="128" height="7" fill="#5B6773"/>
<rect x="326.66" y="145.75" width="22" height="5" fill="#D9D9D9"/>
<rect x="353.66" y="145.75" width="22" height="5" fill="#D9D9D9"/>
<rect x="380.66" y="145.75" width="56" height="5" fill="#D9D9D9"/>
<circle cx="447.16" cy="146.25" r="0.5" fill="#D9D9D9"/>
<circle cx="447.16" cy="148.25" r="0.5" fill="#D9D9D9"/>
<circle cx="447.16" cy="150.25" r="0.5" fill="#D9D9D9"/>
<path d="M323.73 154.75H451.66" stroke="#EAEAEA" stroke-width="0.5"/>
<rect x="326.66" y="158.75" width="22" height="5" fill="#D9D9D9"/>
<rect x="380.66" y="158.75" width="56" height="5" fill="#D9D9D9"/>
<circle cx="447.16" cy="159.25" r="0.5" fill="#D9D9D9"/>
<circle cx="447.16" cy="161.25" r="0.5" fill="#D9D9D9"/>
<circle cx="447.16" cy="163.25" r="0.5" fill="#D9D9D9"/>
<path d="M323.73 167.75H451.66" stroke="#EAEAEA" stroke-width="0.5"/>
</g>
<rect x="292.16" y="125.01" width="160" height="110" rx="3.5" stroke="#CACACA"/>
<rect x="541.16" y="5.00977" width="162" height="112" rx="4.5" stroke="#CECECE"/>
<rect x="541.16" y="129.01" width="162" height="107" rx="4.5" stroke="#CECECE"/>
<rect x="49.1602" y="6.00977" width="157" height="230" rx="4.5" stroke="#CECECE"/>
<g clip-path="url(#clip2_102_5048)">
<rect width="48" height="11" transform="translate(402.66 8.50977)" fill="#1C2D39"/>
<rect width="48" height="11" transform="translate(402.66 8.50977)" fill="white"/>
<g filter="url(#filter0_bd_102_5048)">
<path fill-rule="evenodd" clip-rule="evenodd" d="M402.66 8.50977H450.632V19.5007H402.66V8.50977Z" fill="#1C2D39"/>
</g>
<rect opacity="0.35" x="445.776" y="10.741" width="2.68669" height="1.28736" rx="0.28016" stroke="#EFEFF4" stroke-width="0.129305"/>
<path opacity="0.4" d="M448.655 11.1348V11.6348C448.758 11.5924 448.825 11.4939 448.825 11.3848C448.825 11.2756 448.758 11.1771 448.655 11.1348Z" fill="white"/>
<rect x="445.967" y="10.9264" width="2.304" height="0.916667" rx="0.172406" fill="white"/>
<path fill-rule="evenodd" clip-rule="evenodd" d="M444.09 10.9616C444.374 10.9616 444.648 11.0684 444.855 11.2598C444.87 11.2746 444.895 11.2744 444.91 11.2594L445.059 11.1131C445.067 11.1055 445.071 11.0952 445.071 11.0844C445.071 11.0737 445.066 11.0634 445.058 11.0559C444.517 10.5494 443.662 10.5494 443.121 11.0559C443.113 11.0634 443.108 11.0737 443.108 11.0844C443.108 11.0952 443.112 11.1055 443.12 11.1131L443.269 11.2594C443.284 11.2744 443.309 11.2746 443.324 11.2598C443.531 11.0683 443.805 10.9616 444.09 10.9616ZM444.09 11.4375C444.246 11.4375 444.397 11.4943 444.513 11.5967C444.529 11.6113 444.553 11.611 444.569 11.596L444.717 11.4497C444.725 11.4421 444.729 11.4316 444.729 11.4208C444.729 11.41 444.724 11.3997 444.716 11.3922C444.363 11.0716 443.816 11.0716 443.463 11.3922C443.455 11.3997 443.451 11.41 443.45 11.4208C443.45 11.4317 443.455 11.4421 443.462 11.4497L443.611 11.596C443.626 11.611 443.651 11.6113 443.667 11.5967C443.782 11.4943 443.933 11.4376 444.09 11.4375ZM444.387 11.7578C444.387 11.7686 444.383 11.7791 444.375 11.7867L444.118 12.0394C444.111 12.0468 444.1 12.051 444.09 12.051C444.079 12.051 444.069 12.0468 444.061 12.0394L443.804 11.7867C443.796 11.7791 443.792 11.7686 443.792 11.7577C443.793 11.7469 443.797 11.7366 443.806 11.7294C443.97 11.5941 444.21 11.5941 444.374 11.7294C444.382 11.7366 444.387 11.7469 444.387 11.7578Z" fill="white"/>
<path fill-rule="evenodd" clip-rule="evenodd" d="M442.34 10.718H442.212C442.142 10.718 442.084 10.774 442.084 10.843V11.9264C442.084 11.9954 442.142 12.0514 442.212 12.0514H442.34C442.411 12.0514 442.468 11.9954 442.468 11.9264V10.843C442.468 10.774 442.411 10.718 442.34 10.718ZM441.615 11.0097H441.743C441.814 11.0097 441.871 11.0656 441.871 11.1347V11.9263C441.871 11.9954 441.814 12.0513 441.743 12.0513H441.615C441.544 12.0513 441.487 11.9954 441.487 11.9263V11.1347C441.487 11.0656 441.544 11.0097 441.615 11.0097ZM441.146 11.3014H441.018C440.947 11.3014 440.89 11.3573 440.89 11.4264V11.9264C440.89 11.9954 440.947 12.0514 441.018 12.0514H441.146C441.216 12.0514 441.274 11.9954 441.274 11.9264V11.4264C441.274 11.3573 441.216 11.3014 441.146 11.3014ZM440.548 11.5513H440.42C440.35 11.5513 440.292 11.6073 440.292 11.6763V11.9263C440.292 11.9954 440.35 12.0513 440.42 12.0513H440.548C440.619 12.0513 440.676 11.9954 440.676 11.9263V11.6763C440.676 11.6073 440.619 11.5513 440.548 11.5513Z" fill="white"/>
<path d="M407.37 12.1938C407.12 12.1938 406.928 12.0479 406.889 11.8254H407.132C407.161 11.9296 407.255 11.994 407.373 11.994C407.572 11.994 407.687 11.8102 407.69 11.4892H407.674C407.609 11.6189 407.48 11.6928 407.32 11.6928C407.059 11.6928 406.87 11.5015 406.87 11.2392C406.87 10.9598 407.08 10.7599 407.377 10.7599C407.704 10.7599 407.924 11.0081 407.924 11.4608C407.924 11.922 407.717 12.1938 407.37 12.1938ZM407.378 11.5043C407.536 11.5043 407.649 11.3916 407.649 11.2363C407.649 11.0791 407.534 10.9588 407.379 10.9588C407.225 10.9588 407.109 11.0772 407.109 11.2316C407.109 11.3926 407.219 11.5043 407.378 11.5043ZM408.314 11.2761C408.225 11.2761 408.162 11.2136 408.162 11.1293C408.162 11.045 408.225 10.9825 408.314 10.9825C408.404 10.9825 408.465 11.045 408.465 11.1293C408.465 11.2136 408.404 11.2761 408.314 11.2761ZM408.314 11.9712C408.225 11.9712 408.162 11.9078 408.162 11.8244C408.162 11.7402 408.225 11.6776 408.314 11.6776C408.404 11.6776 408.465 11.7402 408.465 11.8244C408.465 11.9078 408.404 11.9712 408.314 11.9712ZM409.371 12.1606V11.8983H408.703V11.6985C408.88 11.3907 409.074 11.0763 409.26 10.794H409.605V11.6966H409.79V11.8983H409.605V12.1606H409.371ZM408.93 11.6881V11.7023H409.375V10.9891H409.361C409.221 11.2032 409.063 11.456 408.93 11.6881ZM410.31 12.1606V11.0346H410.294L409.954 11.2751V11.045L410.311 10.794H410.555V12.1606H410.31Z" fill="white"/>
<path d="M446.276 16.0186L447.141 16.0186" stroke="white" stroke-width="0.193957" stroke-linecap="round"/>
<path d="M448.431 16.0186L448.649 16.0186" stroke="white" stroke-width="0.193957" stroke-linecap="round"/>
<path d="M446.272 17.3116L446.514 17.3116" stroke="white" stroke-width="0.193957" stroke-linecap="round"/>
<path d="M447.814 17.3116H448.646" stroke="white" stroke-width="0.193957" stroke-linecap="round"/>
<ellipse cx="446.956" cy="17.3116" rx="0.408648" ry="0.412813" stroke="white" stroke-width="0.193957"/>
<ellipse cx="447.588" cy="16.0185" rx="0.408648" ry="0.412813" stroke="white" stroke-width="0.193957"/>
<path fill-rule="evenodd" clip-rule="evenodd" d="M441.067 16.3736C441.067 16.9267 441.515 17.3751 442.068 17.3751C442.311 17.3751 442.533 17.289 442.706 17.1457C442.71 17.151 442.714 17.156 442.718 17.1606L443.487 17.9297C443.525 17.9676 443.587 17.9676 443.624 17.9297C443.662 17.8919 443.662 17.8305 443.624 17.7927L442.855 17.0236C442.851 17.0189 442.846 17.0148 442.84 17.0113C442.984 16.8381 443.07 16.6159 443.07 16.3736C443.07 15.8205 442.621 15.3721 442.068 15.3721C441.515 15.3721 441.067 15.8205 441.067 16.3736ZM442.876 16.3735C442.876 16.8196 442.514 17.1812 442.068 17.1812C441.622 17.1812 441.261 16.8196 441.261 16.3735C441.261 15.9275 441.622 15.5659 442.068 15.5659C442.514 15.5659 442.876 15.9275 442.876 16.3735Z" fill="white"/>
<path d="M420.82 17.4922H420.544V16.1784H419.81V17.4922H419.532V15.9434H420.82V17.4922ZM421.782 16.2997C422.08 16.2997 422.267 16.5305 422.267 16.9061C422.267 17.2786 422.082 17.5115 421.786 17.5115C421.617 17.5115 421.487 17.4385 421.427 17.314H421.409V17.8818H421.143V16.319H421.399V16.5133H421.418C421.485 16.3802 421.621 16.2997 421.782 16.2997ZM421.699 17.2904C421.883 17.2904 421.993 17.1466 421.993 16.9061C421.993 16.6657 421.882 16.5219 421.7 16.5219C421.518 16.5219 421.405 16.6689 421.404 16.9061C421.405 17.1434 421.517 17.2904 421.699 17.2904ZM423.268 17.1713H423.52C423.471 17.3827 423.275 17.5158 422.998 17.5158C422.652 17.5158 422.444 17.2861 422.444 16.9104C422.444 16.5337 422.656 16.2965 422.996 16.2965C423.331 16.2965 423.532 16.5187 423.532 16.8868V16.9716H422.712V16.9856C422.718 17.1841 422.831 17.3086 423.006 17.3086C423.138 17.3086 423.229 17.2593 423.268 17.1713ZM422.995 16.5037C422.836 16.5037 422.724 16.6185 422.713 16.7945H423.265C423.26 16.6164 423.155 16.5037 422.995 16.5037ZM423.868 17.7981H423.623V17.285H423.716C423.803 17.2335 423.839 17.0929 423.85 16.9351L423.891 16.319H424.774V17.285H424.954V17.7981H424.71V17.4922H423.868V17.7981ZM424.508 17.285V16.5262H424.119L424.089 16.9491C424.08 17.0779 424.053 17.1927 424.001 17.2657V17.285H424.508ZM425.88 17.4922V16.5273H425.394V17.4922H425.128V16.319H426.146V17.4922H425.88ZM426.703 17.4922H426.44V16.319H426.703V17.1047H426.721L427.221 16.319H427.484V17.4922H427.221V16.7022H427.203L426.703 17.4922ZM428.793 16.7108H428.54C428.515 16.597 428.427 16.5144 428.281 16.5144C428.099 16.5144 427.991 16.6582 427.991 16.9029C427.991 17.1519 428.1 17.2968 428.281 17.2968C428.42 17.2968 428.512 17.2314 428.54 17.1079H428.793C428.764 17.3505 428.58 17.5158 428.283 17.5158C427.929 17.5158 427.721 17.2872 427.721 16.9029C427.721 16.523 427.928 16.2965 428.281 16.2965C428.583 16.2965 428.766 16.4682 428.793 16.7108ZM429.339 17.5115C429.113 17.5115 428.951 17.3741 428.951 17.1595C428.951 16.9491 429.111 16.8257 429.396 16.8096L429.699 16.7913V16.6904C429.699 16.5734 429.622 16.5079 429.478 16.5079C429.355 16.5079 429.272 16.552 429.247 16.6325H428.996C429.017 16.4274 429.212 16.2965 429.491 16.2965C429.792 16.2965 429.962 16.4425 429.962 16.6904V17.4922H429.705V17.3312H429.687C429.622 17.445 429.493 17.5115 429.339 17.5115ZM429.418 17.3065C429.579 17.3065 429.699 17.2013 429.699 17.0618V16.9663L429.434 16.9845C429.285 16.9942 429.215 17.0489 429.215 17.1466C429.215 17.2475 429.3 17.3065 429.418 17.3065ZM431.013 17.4922V16.992H430.516V17.4922H430.25V16.319H430.516V16.7838H431.013V16.319H431.28V17.4922H431.013ZM431.836 17.4922H431.573V16.319H431.836V17.1047H431.854L432.355 16.319H432.618V17.4922H432.355V16.7022H432.336L431.836 17.4922ZM433.554 17.4922V17.0972H433.401L433.126 17.4922H432.821L433.136 17.0532C432.976 17.006 432.878 16.8804 432.878 16.7183C432.878 16.4725 433.058 16.319 433.332 16.319H433.816V17.4922H433.554ZM433.352 16.8997H433.554V16.5262H433.352C433.224 16.5262 433.141 16.6003 433.141 16.7183C433.141 16.8246 433.225 16.8997 433.352 16.8997Z" fill="#EFEFF4"/>
<path d="M405.063 17.898C405.098 17.9313 405.141 17.9495 405.189 17.9495C405.291 17.9495 405.369 17.8707 405.369 17.7707C405.369 17.7207 405.35 17.6752 405.315 17.6404L404.254 16.6039L405.315 15.5705C405.35 15.5356 405.369 15.4886 405.369 15.4402C405.369 15.3401 405.291 15.2614 405.189 15.2614C405.141 15.2614 405.098 15.2795 405.065 15.3129L403.886 16.4645C403.843 16.5039 403.822 16.5524 403.822 16.6054C403.822 16.6584 403.843 16.7039 403.884 16.7448L405.063 17.898Z" fill="white"/>
<path d="M407.467 17.1134H407.273V16.4082H406.423V17.1134H406.23V15.5646H406.423V16.2343H407.273V15.5646H407.467V17.1134ZM408.129 17.1338C407.904 17.1338 407.738 17.0007 407.738 16.7893C407.738 16.5821 407.89 16.463 408.16 16.4469L408.494 16.4265V16.3213C408.494 16.1785 408.405 16.1002 408.232 16.1002C408.093 16.1002 407.997 16.1528 407.971 16.244H407.784C407.809 16.0583 407.991 15.936 408.238 15.936C408.521 15.936 408.678 16.0809 408.678 16.3213V17.1134H408.502V16.9427H408.485C408.41 17.0662 408.283 17.1338 408.129 17.1338ZM408.163 16.9717C408.353 16.9717 408.494 16.8472 408.494 16.6819V16.5757L408.182 16.5961C408.006 16.6079 407.929 16.669 407.929 16.785C407.929 16.903 408.029 16.9717 408.163 16.9717ZM409.381 17.1327C409.13 17.1327 408.942 17.0093 408.922 16.8172H409.112C409.134 16.9181 409.236 16.9771 409.381 16.9771C409.552 16.9771 409.653 16.8966 409.653 16.7817C409.653 16.6551 409.558 16.5971 409.381 16.5971H409.201V16.4426H409.381C409.529 16.4426 409.612 16.3835 409.612 16.2623C409.612 16.1646 409.537 16.0927 409.388 16.0927C409.252 16.0927 409.151 16.1528 409.136 16.2462H408.954C408.979 16.0562 409.148 15.936 409.388 15.936C409.646 15.936 409.794 16.0637 409.794 16.2483C409.794 16.3664 409.718 16.4726 409.603 16.4995V16.5166C409.757 16.5499 409.836 16.6433 409.836 16.7721C409.836 16.9868 409.651 17.1327 409.381 17.1327ZM410.417 17.1338C410.192 17.1338 410.026 17.0007 410.026 16.7893C410.026 16.5821 410.178 16.463 410.448 16.4469L410.782 16.4265V16.3213C410.782 16.1785 410.693 16.1002 410.52 16.1002C410.381 16.1002 410.285 16.1528 410.259 16.244H410.072C410.097 16.0583 410.279 15.936 410.526 15.936C410.809 15.936 410.966 16.0809 410.966 16.3213V17.1134H410.79V16.9427H410.773C410.698 17.0662 410.571 17.1338 410.417 17.1338ZM410.451 16.9717C410.641 16.9717 410.782 16.8472 410.782 16.6819V16.5757L410.47 16.5961C410.294 16.6079 410.217 16.669 410.217 16.785C410.217 16.903 410.317 16.9717 410.451 16.9717ZM411.302 17.4193H411.128V16.9588H411.225C411.31 16.903 411.351 16.7571 411.362 16.6014L411.407 15.9564H412.196V16.9588H412.381V17.4193H412.207V17.1134H411.302V17.4193ZM412.012 16.9588V16.1109H411.573L411.536 16.6057C411.525 16.7463 411.495 16.8698 411.441 16.9417V16.9588H412.012Z" fill="white"/>
<rect x="401.66" y="7.50977" width="50" height="13" fill="#1C2D39"/>
<path d="M406.66 14.5098L404.66 16.5098L406.66 18.5098" stroke="#D9D9D9" stroke-width="0.5" stroke-linecap="round" stroke-linejoin="round"/>
<g filter="url(#filter1_dd_102_5048)">
<g clip-path="url(#clip3_102_5048)">
<path d="M403.66 27.5098H448.66V45.5449H403.66V27.5098Z" fill="white"/>
<rect x="441.66" y="28.5098" width="6" height="2" fill="#D9D9D9"/>
<rect x="445.66" y="31.5098" width="2" height="2" rx="1" fill="#4AA096"/>
<path d="M448.66 27.5098L448.66 28.027L403.66 28.027L403.66 27.5098L448.66 27.5098Z" fill="#2F7FCF"/>
<rect x="404.66" y="29.5098" width="13" height="2" fill="#3180CF"/>
<g clip-path="url(#clip4_102_5048)">
<rect x="404.66" y="33.5098" width="24" height="3" fill="#7D7878"/>
<path d="M404.66 37.5098L447.66 37.5098" stroke="#C6C6C8" stroke-width="0.129305"/>
<rect x="404.66" y="38.5098" width="43" height="3" fill="#D9D9D9"/>
</g>
<rect x="404.66" y="42.5098" width="23" height="2" fill="#D9D9D9"/>
<rect x="433.66" y="42.5098" width="14" height="2" fill="#4AA096"/>
</g>
</g>
<g filter="url(#filter2_dd_102_5048)">
<rect x="441.388" y="84.7523" width="5.3374" height="5.3374" rx="2.6687" fill="#356862"/>
</g>
<g filter="url(#filter3_d_102_5048)">
<rect x="441.388" y="91.7523" width="5.3374" height="5.3374" rx="2.6687" fill="#356862"/>
</g>
<g filter="url(#filter4_d_102_5048)">
<rect x="441.388" y="98.7523" width="5.3374" height="5.3374" rx="2.6687" fill="#356862"/>
</g>
<g filter="url(#filter5_dd_102_5048)">
<rect x="440.66" y="105.995" width="7" height="7" rx="3.39653" fill="#999999"/>
</g>
<circle cx="440.66" cy="16.5098" r="1.75" stroke="#D9D9D9" stroke-width="0.5"/>
<circle cx="445.66" cy="16.5098" r="1.75" stroke="#D9D9D9" stroke-width="0.5"/>
<rect x="411.66" y="14.5098" width="25" height="4" fill="#D9D9D9"/>
<rect width="48.4892" height="5.6894" transform="translate(402.416 20.5098)" fill="white"/>
<line x1="404.416" y1="26.4774" x2="448.416" y2="26.4774" stroke="#C6C6C8" stroke-width="0.0646523"/>
<g filter="url(#filter6_b_102_5048)">
<path fill-rule="evenodd" clip-rule="evenodd" d="M402.416 20.5098H450.905V26.1992H402.416V20.5098Z" fill="white"/>
</g>
<line x1="404.416" y1="26.4774" x2="448.416" y2="26.4774" stroke="#C6C6C8" stroke-width="0.0646523"/>
<rect x="410.36" y="22.0427" width="2.97852" height="2.88281" stroke="#52B2A6" stroke-width="0.5" stroke-linejoin="round"/>
<g clip-path="url(#clip5_102_5048)">
<rect width="3.62053" height="3.62053" transform="translate(438.339 21.6738)" fill="white"/>
<path fill-rule="evenodd" clip-rule="evenodd" d="M440.149 24.7771C440.863 24.7771 441.442 24.1982 441.442 23.4841C441.442 22.77 440.863 22.191 440.149 22.191C439.435 22.191 438.856 22.77 438.856 23.4841C438.856 24.1982 439.435 24.7771 440.149 24.7771Z" fill="#EB5757"/>
</g>
<rect x="414.896" y="22.5664" width="22.657" height="2.33887" fill="#D9D9D9"/>
</g>
<rect x="401.66" y="8.50977" width="49" height="107" rx="3" stroke="#BDBDBD"/>
<g clip-path="url(#clip6_102_5048)">
<rect width="48.4892" height="11.3788" transform="translate(468.119 127.51)" fill="#1C2D39"/>
<rect width="48" height="11" transform="translate(468.119 127.51)" fill="white"/>
<g filter="url(#filter7_bd_102_5048)">
<path fill-rule="evenodd" clip-rule="evenodd" d="M468.119 127.51H516.091V138.501H468.119V127.51Z" fill="#1C2D39"/>
</g>
<rect opacity="0.35" x="511.235" y="129.741" width="2.68669" height="1.28736" rx="0.28016" stroke="#EFEFF4" stroke-width="0.129305"/>
<path opacity="0.4" d="M514.114 130.135V130.635C514.217 130.592 514.284 130.494 514.284 130.385C514.284 130.276 514.217 130.177 514.114 130.135Z" fill="white"/>
<rect x="511.426" y="129.926" width="2.304" height="0.916667" rx="0.172406" fill="white"/>
<path fill-rule="evenodd" clip-rule="evenodd" d="M509.549 129.962C509.833 129.962 510.107 130.068 510.314 130.26C510.329 130.275 510.354 130.274 510.369 130.259L510.518 130.113C510.526 130.105 510.53 130.095 510.53 130.084C510.53 130.074 510.525 130.063 510.517 130.056C509.976 129.549 509.121 129.549 508.58 130.056C508.572 130.063 508.567 130.074 508.567 130.084C508.567 130.095 508.571 130.105 508.579 130.113L508.728 130.259C508.743 130.274 508.768 130.275 508.783 130.26C508.99 130.068 509.264 129.962 509.549 129.962ZM509.549 130.438C509.705 130.438 509.856 130.494 509.972 130.597C509.988 130.611 510.012 130.611 510.028 130.596L510.176 130.45C510.184 130.442 510.188 130.432 510.188 130.421C510.188 130.41 510.183 130.4 510.175 130.392C509.822 130.072 509.275 130.072 508.922 130.392C508.914 130.4 508.91 130.41 508.909 130.421C508.909 130.432 508.914 130.442 508.921 130.45L509.07 130.596C509.085 130.611 509.11 130.611 509.126 130.597C509.241 130.494 509.392 130.438 509.549 130.438ZM509.846 130.758C509.846 130.769 509.842 130.779 509.834 130.787L509.577 131.039C509.569 131.047 509.559 131.051 509.549 131.051C509.538 131.051 509.528 131.047 509.52 131.039L509.263 130.787C509.255 130.779 509.251 130.769 509.251 130.758C509.252 130.747 509.256 130.737 509.265 130.729C509.428 130.594 509.669 130.594 509.833 130.729C509.841 130.737 509.846 130.747 509.846 130.758Z" fill="white"/>
<path fill-rule="evenodd" clip-rule="evenodd" d="M507.799 129.718H507.671C507.601 129.718 507.543 129.774 507.543 129.843V130.926C507.543 130.995 507.601 131.051 507.671 131.051H507.799C507.87 131.051 507.927 130.995 507.927 130.926V129.843C507.927 129.774 507.87 129.718 507.799 129.718ZM507.074 130.01H507.202C507.273 130.01 507.33 130.066 507.33 130.135V130.926C507.33 130.995 507.273 131.051 507.202 131.051H507.074C507.003 131.051 506.946 130.995 506.946 130.926V130.135C506.946 130.066 507.003 130.01 507.074 130.01ZM506.605 130.301H506.477C506.406 130.301 506.349 130.357 506.349 130.426V130.926C506.349 130.995 506.406 131.051 506.477 131.051H506.605C506.675 131.051 506.733 130.995 506.733 130.926V130.426C506.733 130.357 506.675 130.301 506.605 130.301ZM506.007 130.551H505.879C505.809 130.551 505.751 130.607 505.751 130.676V130.926C505.751 130.995 505.809 131.051 505.879 131.051H506.007C506.078 131.051 506.135 130.995 506.135 130.926V130.676C506.135 130.607 506.078 130.551 506.007 130.551Z" fill="white"/>
<path d="M472.829 131.194C472.579 131.194 472.387 131.048 472.348 130.825H472.591C472.62 130.93 472.714 130.994 472.832 130.994C473.031 130.994 473.146 130.81 473.149 130.489H473.133C473.068 130.619 472.939 130.693 472.778 130.693C472.518 130.693 472.329 130.501 472.329 130.239C472.329 129.96 472.539 129.76 472.836 129.76C473.163 129.76 473.383 130.008 473.383 130.461C473.383 130.922 473.176 131.194 472.829 131.194ZM472.837 130.504C472.995 130.504 473.108 130.392 473.108 130.236C473.108 130.079 472.993 129.959 472.838 129.959C472.684 129.959 472.568 130.077 472.568 130.232C472.568 130.393 472.678 130.504 472.837 130.504ZM473.773 130.276C473.684 130.276 473.621 130.214 473.621 130.129C473.621 130.045 473.684 129.983 473.773 129.983C473.863 129.983 473.924 130.045 473.924 130.129C473.924 130.214 473.863 130.276 473.773 130.276ZM473.773 130.971C473.684 130.971 473.621 130.908 473.621 130.824C473.621 130.74 473.684 130.678 473.773 130.678C473.863 130.678 473.924 130.74 473.924 130.824C473.924 130.908 473.863 130.971 473.773 130.971ZM474.83 131.161V130.898H474.162V130.698C474.339 130.391 474.533 130.076 474.719 129.794H475.064V130.697H475.248V130.898H475.064V131.161H474.83ZM474.389 130.688V130.702H474.834V129.989H474.82C474.68 130.203 474.522 130.456 474.389 130.688ZM475.769 131.161V130.035H475.753L475.413 130.275V130.045L475.77 129.794H476.014V131.161H475.769Z" fill="white"/>
<path d="M512.179 135.019L513.053 135.019" stroke="white" stroke-width="0.193957" stroke-linecap="round"/>
<path d="M514.356 135.019L514.576 135.019" stroke="white" stroke-width="0.193957" stroke-linecap="round"/>
<path d="M512.175 136.312L512.42 136.312" stroke="white" stroke-width="0.193957" stroke-linecap="round"/>
<path d="M513.733 136.312H514.573" stroke="white" stroke-width="0.193957" stroke-linecap="round"/>
<circle cx="512.867" cy="136.312" r="0.412813" stroke="white" stroke-width="0.193957"/>
<circle cx="513.505" cy="135.019" r="0.412813" stroke="white" stroke-width="0.193957"/>
<path fill-rule="evenodd" clip-rule="evenodd" d="M506.91 135.374C506.91 135.927 507.359 136.375 507.912 136.375C508.154 136.375 508.377 136.289 508.55 136.146C508.553 136.151 508.557 136.156 508.562 136.161L509.331 136.93C509.369 136.968 509.43 136.968 509.468 136.93C509.506 136.892 509.506 136.831 509.468 136.793L508.699 136.024C508.694 136.019 508.689 136.015 508.684 136.011C508.827 135.838 508.913 135.616 508.913 135.374C508.913 134.82 508.465 134.372 507.912 134.372C507.359 134.372 506.91 134.82 506.91 135.374ZM508.72 135.374C508.72 135.82 508.358 136.181 507.912 136.181C507.466 136.181 507.104 135.82 507.104 135.374C507.104 134.927 507.466 134.566 507.912 134.566C508.358 134.566 508.72 134.927 508.72 135.374Z" fill="white"/>
<path d="M486.279 136.492H486.003V135.178H485.269V136.492H484.991V134.943H486.279V136.492ZM487.241 135.3C487.539 135.3 487.725 135.53 487.725 135.906C487.725 136.279 487.541 136.512 487.245 136.512C487.076 136.512 486.946 136.439 486.886 136.314H486.868V136.882H486.602V135.319H486.858V135.513H486.876C486.944 135.38 487.08 135.3 487.241 135.3ZM487.158 136.29C487.342 136.29 487.452 136.147 487.452 135.906C487.452 135.666 487.341 135.522 487.159 135.522C486.977 135.522 486.864 135.669 486.863 135.906C486.864 136.143 486.976 136.29 487.158 136.29ZM488.726 136.171H488.979C488.93 136.383 488.734 136.516 488.457 136.516C488.111 136.516 487.903 136.286 487.903 135.91C487.903 135.534 488.115 135.296 488.455 135.296C488.79 135.296 488.991 135.519 488.991 135.887V135.972H488.171V135.986C488.177 136.184 488.29 136.309 488.465 136.309C488.597 136.309 488.688 136.259 488.726 136.171ZM488.454 135.504C488.295 135.504 488.183 135.618 488.172 135.795H488.724C488.719 135.616 488.614 135.504 488.454 135.504ZM489.327 136.798H489.082V136.285H489.175C489.262 136.234 489.298 136.093 489.309 135.935L489.35 135.319H490.233V136.285H490.413V136.798H490.169V136.492H489.327V136.798ZM489.967 136.285V135.526H489.578L489.548 135.949C489.539 136.078 489.512 136.193 489.46 136.266V136.285H489.967ZM491.339 136.492V135.527H490.853V136.492H490.587V135.319H491.605V136.492H491.339ZM492.162 136.492H491.899V135.319H492.162V136.105H492.18L492.68 135.319H492.943V136.492H492.68V135.702H492.662L492.162 136.492ZM494.252 135.711H493.999C493.974 135.597 493.886 135.514 493.74 135.514C493.558 135.514 493.45 135.658 493.45 135.903C493.45 136.152 493.559 136.297 493.74 136.297C493.879 136.297 493.971 136.231 493.999 136.108H494.252C494.223 136.351 494.039 136.516 493.742 136.516C493.388 136.516 493.18 136.287 493.18 135.903C493.18 135.523 493.387 135.296 493.74 135.296C494.042 135.296 494.225 135.468 494.252 135.711ZM494.798 136.512C494.572 136.512 494.41 136.374 494.41 136.159C494.41 135.949 494.57 135.826 494.855 135.81L495.158 135.791V135.69C495.158 135.573 495.081 135.508 494.937 135.508C494.814 135.508 494.731 135.552 494.706 135.632H494.455C494.476 135.427 494.671 135.296 494.95 135.296C495.251 135.296 495.421 135.442 495.421 135.69V136.492H495.164V136.331H495.146C495.081 136.445 494.952 136.512 494.798 136.512ZM494.877 136.307C495.038 136.307 495.158 136.201 495.158 136.062V135.966L494.893 135.985C494.744 135.994 494.674 136.049 494.674 136.147C494.674 136.247 494.759 136.307 494.877 136.307ZM496.472 136.492V135.992H495.975V136.492H495.709V135.319H495.975V135.784H496.472V135.319H496.739V136.492H496.472ZM497.295 136.492H497.032V135.319H497.295V136.105H497.313L497.814 135.319H498.077V136.492H497.814V135.702H497.795L497.295 136.492ZM499.013 136.492V136.097H498.86L498.585 136.492H498.28L498.595 136.053C498.435 136.006 498.337 135.88 498.337 135.718C498.337 135.473 498.517 135.319 498.791 135.319H499.275V136.492H499.013ZM498.811 135.9H499.013V135.526H498.811C498.683 135.526 498.6 135.6 498.6 135.718C498.6 135.825 498.684 135.9 498.811 135.9Z" fill="#EFEFF4"/>
<path d="M470.522 136.898C470.557 136.931 470.6 136.949 470.648 136.949C470.75 136.949 470.828 136.871 470.828 136.771C470.828 136.721 470.809 136.675 470.774 136.64L469.713 135.604L470.774 134.57C470.809 134.536 470.828 134.489 470.828 134.44C470.828 134.34 470.75 134.261 470.648 134.261C470.6 134.261 470.557 134.28 470.524 134.313L469.345 135.464C469.302 135.504 469.281 135.552 469.281 135.605C469.281 135.658 469.302 135.704 469.343 135.745L470.522 136.898Z" fill="white"/>
<path d="M472.926 136.113H472.732V135.408H471.882V136.113H471.689V134.565H471.882V135.234H472.732V134.565H472.926V136.113ZM473.588 136.134C473.363 136.134 473.197 136.001 473.197 135.789C473.197 135.582 473.349 135.463 473.619 135.447L473.953 135.426V135.321C473.953 135.179 473.864 135.1 473.691 135.1C473.552 135.1 473.456 135.153 473.43 135.244H473.243C473.268 135.058 473.45 134.936 473.697 134.936C473.98 134.936 474.137 135.081 474.137 135.321V136.113H473.961V135.943H473.944C473.869 136.066 473.742 136.134 473.588 136.134ZM473.622 135.972C473.812 135.972 473.953 135.847 473.953 135.682V135.576L473.641 135.596C473.465 135.608 473.388 135.669 473.388 135.785C473.388 135.903 473.488 135.972 473.622 135.972ZM474.84 136.133C474.589 136.133 474.401 136.009 474.381 135.817H474.571C474.593 135.918 474.695 135.977 474.84 135.977C475.011 135.977 475.112 135.897 475.112 135.782C475.112 135.655 475.017 135.597 474.84 135.597H474.66V135.443H474.84C474.988 135.443 475.071 135.384 475.071 135.262C475.071 135.165 474.996 135.093 474.847 135.093C474.711 135.093 474.61 135.153 474.595 135.246H474.413C474.438 135.056 474.607 134.936 474.847 134.936C475.105 134.936 475.253 135.064 475.253 135.248C475.253 135.366 475.177 135.473 475.062 135.499V135.517C475.216 135.55 475.295 135.643 475.295 135.772C475.295 135.987 475.11 136.133 474.84 136.133ZM475.876 136.134C475.651 136.134 475.485 136.001 475.485 135.789C475.485 135.582 475.637 135.463 475.907 135.447L476.241 135.426V135.321C476.241 135.179 476.152 135.1 475.979 135.1C475.84 135.1 475.744 135.153 475.718 135.244H475.531C475.556 135.058 475.738 134.936 475.985 134.936C476.268 134.936 476.425 135.081 476.425 135.321V136.113H476.249V135.943H476.232C476.157 136.066 476.03 136.134 475.876 136.134ZM475.91 135.972C476.1 135.972 476.241 135.847 476.241 135.682V135.576L475.929 135.596C475.753 135.608 475.676 135.669 475.676 135.785C475.676 135.903 475.776 135.972 475.91 135.972ZM476.761 136.419H476.587V135.959H476.684C476.769 135.903 476.81 135.757 476.821 135.601L476.866 134.956H477.655V135.959H477.84V136.419H477.666V136.113H476.761V136.419ZM477.471 135.959V135.111H477.032L476.995 135.606C476.984 135.746 476.954 135.87 476.9 135.942V135.959H477.471Z" fill="white"/>
<rect x="467.607" y="126.51" width="50" height="13" fill="#1C2D39"/>
<path d="M472.607 133.51L470.607 135.51L472.607 137.51" stroke="#D9D9D9" stroke-width="0.5" stroke-linecap="round" stroke-linejoin="round"/>
<circle cx="506.607" cy="135.51" r="1.75" stroke="#D9D9D9" stroke-width="0.5"/>
<circle cx="511.607" cy="135.51" r="1.75" stroke="#D9D9D9" stroke-width="0.5"/>
<rect x="477.607" y="133.51" width="25" height="4" fill="#D9D9D9"/>
<rect width="48.4892" height="5.6894" transform="translate(468.363 139.51)" fill="white"/>
<rect width="3.62053" height="3.62053" transform="translate(504.609 140.723)" fill="white"/>
<rect x="469.66" y="143.51" width="35" height="5" fill="#D9D9D9"/>
<path d="M467.66 152.51H596.66" stroke="#EAEAEA" stroke-width="0.5"/>
<rect x="469.66" y="156.51" width="35" height="5" fill="#D9D9D9"/>
<path d="M467.66 165.51H596.66" stroke="#EAEAEA" stroke-width="0.5"/>
<rect x="469.66" y="169.51" width="35" height="5" fill="#D9D9D9"/>
<path d="M467.66 178.51H596.66" stroke="#EAEAEA" stroke-width="0.5"/>
<rect x="469.66" y="182.51" width="35" height="5" fill="#D9D9D9"/>
<path d="M467.66 191.51H596.66" stroke="#EAEAEA" stroke-width="0.5"/>
<rect x="469.66" y="195.51" width="35" height="5" fill="#D9D9D9"/>
<path d="M467.66 204.51H596.66" stroke="#EAEAEA" stroke-width="0.5"/>
<path d="M511.66 143.51L513.66 145.51L511.66 147.51" stroke="#D9D9D9" stroke-width="0.5" stroke-linecap="round" stroke-linejoin="round"/>
<path d="M511.66 157.51L513.66 159.51L511.66 161.51" stroke="#D9D9D9" stroke-width="0.5" stroke-linecap="round" stroke-linejoin="round"/>
<path d="M511.66 170.51L513.66 172.51L511.66 174.51" stroke="#D9D9D9" stroke-width="0.5" stroke-linecap="round" stroke-linejoin="round"/>
<path d="M511.66 183.51L513.66 185.51L511.66 187.51" stroke="#D9D9D9" stroke-width="0.5" stroke-linecap="round" stroke-linejoin="round"/>
<path d="M511.66 196.51L513.66 198.51L511.66 200.51" stroke="#D9D9D9" stroke-width="0.5" stroke-linecap="round" stroke-linejoin="round"/>
</g>
<rect x="467.607" y="127.51" width="49" height="107" rx="3" stroke="#BDBDBD"/>
<path d="M492.66 125.51V71.5098C492.66 63.7778 498.928 57.5098 506.66 57.5098H541.66" stroke="#CECECE" stroke-width="2" stroke-dasharray="4 4"/>
<path d="M291.66 175.51L260.498 175.51C252.766 175.51 246.498 169.242 246.498 161.51L246.498 75.5098C246.498 67.7778 240.23 61.5098 232.498 61.5098L205.66 61.5098" stroke="#CECECE" stroke-width="2" stroke-dasharray="4 4"/>
<g clip-path="url(#clip7_102_5048)">
<rect x="225.16" y="5.00977" width="162" height="112" rx="4.5" stroke="#CECECE"/>
<rect x="220.66" y="5.50977" width="185" height="5" rx="2.5" fill="#1C2D39"/>
<rect x="225.66" y="5.50977" width="32" height="131" fill="#1C2D39"/>
<rect x="272.16" y="14.0098" width="106" height="43" rx="2.5" stroke="#BDBDBD"/>
<rect opacity="0.2" x="229.66" y="20.0098" width="26" height="5" fill="#52B2A6"/>
<rect x="229.66" y="10.0098" width="26" height="5" fill="#D9D9D9"/>
<rect x="260.66" y="13.5098" width="8" height="8" rx="2" fill="#52B2A6"/>
<rect x="263.66" y="72.5098" width="29" height="5" fill="#999999"/>
<rect x="263.66" y="84.5098" width="57" height="5" fill="#D9D9D9"/>
<rect x="263.66" y="97.5098" width="57" height="5" fill="#D9D9D9"/>
<path d="M263.66 93.5098H378.66" stroke="#BDBDBD" stroke-width="0.5"/>
<path d="M263.66 81.5098H378.66" stroke="#BDBDBD" stroke-width="0.5"/>
<path d="M263.66 106.51H378.66" stroke="#BDBDBD" stroke-width="0.5"/>
<path d="M292.66 34.0098H378.66" stroke="#BDBDBD" stroke-width="0.5"/>
<path d="M292.66 21.5098H378.66" stroke="#BDBDBD" stroke-width="0.5"/>
<path d="M292.66 46.5098H378.66" stroke="#BDBDBD" stroke-width="0.5"/>
<rect x="278.66" y="20.5098" width="11" height="28" fill="#D9D9D9"/>
</g>
<rect x="226.16" y="6.00977" width="160" height="110" rx="3.5" stroke="#CACACA"/>
<rect width="95" height="280" transform="matrix(-1 0 0 1 681.66 4.50977)" fill="url(#paint1_linear_102_5048)"/>
<rect width="95" height="280" transform="matrix(-1 0 0 1 681.66 4.50977)" fill="url(#paint2_linear_102_5048)"/>
<rect x="48.6602" y="-7.49023" width="145" height="280" fill="url(#paint3_linear_102_5048)"/>
<rect x="48.6602" y="-7.49023" width="145" height="280" fill="url(#paint4_linear_102_5048)"/>
</g>
<defs>
<filter id="filter0_bd_102_5048" x="400.074" y="5.92367" width="53.1441" height="16.163" filterUnits="userSpaceOnUse" color-interpolation-filters="sRGB">
<feFlood flood-opacity="0" result="BackgroundImageFix"/>
<feGaussianBlur in="BackgroundImageFix" stdDeviation="1.29305"/>
<feComposite in2="SourceAlpha" operator="in" result="effect1_backgroundBlur_102_5048"/>
<feColorMatrix in="SourceAlpha" type="matrix" values="0 0 0 0 0 0 0 0 0 0 0 0 0 0 0 0 0 0 127 0" result="hardAlpha"/>
<feOffset dy="0.0646523"/>
<feColorMatrix type="matrix" values="0 0 0 0 1 0 0 0 0 1 0 0 0 0 1 0 0 0 0.15 0"/>
<feBlend mode="normal" in2="effect1_backgroundBlur_102_5048" result="effect2_dropShadow_102_5048"/>
<feBlend mode="normal" in="SourceGraphic" in2="effect2_dropShadow_102_5048" result="shape"/>
</filter>
<filter id="filter1_dd_102_5048" x="402.496" y="26.346" width="47.3275" height="24.3275" filterUnits="userSpaceOnUse" color-interpolation-filters="sRGB">
<feFlood flood-opacity="0" result="BackgroundImageFix"/>
<feColorMatrix in="SourceAlpha" type="matrix" values="0 0 0 0 0 0 0 0 0 0 0 0 0 0 0 0 0 0 127 0" result="hardAlpha"/>
<feOffset/>
<feGaussianBlur stdDeviation="0.581871"/>
<feColorMatrix type="matrix" values="0 0 0 0 0 0 0 0 0 0 0 0 0 0 0 0 0 0 0.09 0"/>
<feBlend mode="normal" in2="BackgroundImageFix" result="effect1_dropShadow_102_5048"/>
<feColorMatrix in="SourceAlpha" type="matrix" values="0 0 0 0 0 0 0 0 0 0 0 0 0 0 0 0 0 0 127 0" result="hardAlpha"/>
<feOffset dy="0.129305"/>
<feGaussianBlur stdDeviation="0.387914"/>
<feColorMatrix type="matrix" values="0 0 0 0 0 0 0 0 0 0 0 0 0 0 0 0 0 0 0.15 0"/>
<feBlend mode="normal" in2="effect1_dropShadow_102_5048" result="effect2_dropShadow_102_5048"/>
<feBlend mode="normal" in="SourceGraphic" in2="effect2_dropShadow_102_5048" result="shape"/>
</filter>
<filter id="filter2_dd_102_5048" x="421.388" y="65.7523" width="45.3374" height="45.3374" filterUnits="userSpaceOnUse" color-interpolation-filters="sRGB">
<feFlood flood-opacity="0" result="BackgroundImageFix"/>
<feColorMatrix in="SourceAlpha" type="matrix" values="0 0 0 0 0 0 0 0 0 0 0 0 0 0 0 0 0 0 127 0" result="hardAlpha"/>
<feOffset dy="1"/>
<feGaussianBlur stdDeviation="10"/>
<feColorMatrix type="matrix" values="0 0 0 0 0 0 0 0 0 0 0 0 0 0 0 0 0 0 0.16 0"/>
<feBlend mode="normal" in2="BackgroundImageFix" result="effect1_dropShadow_102_5048"/>
<feColorMatrix in="SourceAlpha" type="matrix" values="0 0 0 0 0 0 0 0 0 0 0 0 0 0 0 0 0 0 127 0" result="hardAlpha"/>
<feOffset/>
<feGaussianBlur stdDeviation="2"/>
<feColorMatrix type="matrix" values="0 0 0 0 0 0 0 0 0 0 0 0 0 0 0 0 0 0 0.08 0"/>
<feBlend mode="normal" in2="effect1_dropShadow_102_5048" result="effect2_dropShadow_102_5048"/>
<feBlend mode="normal" in="SourceGraphic" in2="effect2_dropShadow_102_5048" result="shape"/>
</filter>
<filter id="filter3_d_102_5048" x="436.388" y="87.7523" width="15.3374" height="15.3374" filterUnits="userSpaceOnUse" color-interpolation-filters="sRGB">
<feFlood flood-opacity="0" result="BackgroundImageFix"/>
<feColorMatrix in="SourceAlpha" type="matrix" values="0 0 0 0 0 0 0 0 0 0 0 0 0 0 0 0 0 0 127 0" result="hardAlpha"/>
<feOffset dy="1"/>
<feGaussianBlur stdDeviation="2.5"/>
<feColorMatrix type="matrix" values="0 0 0 0 0 0 0 0 0 0 0 0 0 0 0 0 0 0 0.1 0"/>
<feBlend mode="normal" in2="BackgroundImageFix" result="effect1_dropShadow_102_5048"/>
<feBlend mode="normal" in="SourceGraphic" in2="effect1_dropShadow_102_5048" result="shape"/>
</filter>
<filter id="filter4_d_102_5048" x="436.388" y="94.7523" width="15.3374" height="15.3374" filterUnits="userSpaceOnUse" color-interpolation-filters="sRGB">
<feFlood flood-opacity="0" result="BackgroundImageFix"/>
<feColorMatrix in="SourceAlpha" type="matrix" values="0 0 0 0 0 0 0 0 0 0 0 0 0 0 0 0 0 0 127 0" result="hardAlpha"/>
<feOffset dy="1"/>
<feGaussianBlur stdDeviation="2.5"/>
<feColorMatrix type="matrix" values="0 0 0 0 0 0 0 0 0 0 0 0 0 0 0 0 0 0 0.1 0"/>
<feBlend mode="normal" in2="BackgroundImageFix" result="effect1_dropShadow_102_5048"/>
<feBlend mode="normal" in="SourceGraphic" in2="effect1_dropShadow_102_5048" result="shape"/>
</filter>
<filter id="filter5_dd_102_5048" x="438.234" y="103.69" width="11.8522" height="11.8522" filterUnits="userSpaceOnUse" color-interpolation-filters="sRGB">
<feFlood flood-opacity="0" result="BackgroundImageFix"/>
<feColorMatrix in="SourceAlpha" type="matrix" values="0 0 0 0 0 0 0 0 0 0 0 0 0 0 0 0 0 0 127 0" result="hardAlpha"/>
<feOffset dy="0.121305"/>
<feGaussianBlur stdDeviation="1.21305"/>
<feColorMatrix type="matrix" values="0 0 0 0 0 0 0 0 0 0 0 0 0 0 0 0 0 0 0.16 0"/>
<feBlend mode="normal" in2="BackgroundImageFix" result="effect1_dropShadow_102_5048"/>
<feColorMatrix in="SourceAlpha" type="matrix" values="0 0 0 0 0 0 0 0 0 0 0 0 0 0 0 0 0 0 127 0" result="hardAlpha"/>
<feOffset/>
<feGaussianBlur stdDeviation="0.242609"/>
<feColorMatrix type="matrix" values="0 0 0 0 0 0 0 0 0 0 0 0 0 0 0 0 0 0 0.08 0"/>
<feBlend mode="normal" in2="effect1_dropShadow_102_5048" result="effect2_dropShadow_102_5048"/>
<feBlend mode="normal" in="SourceGraphic" in2="effect2_dropShadow_102_5048" result="shape"/>
</filter>
<filter id="filter6_b_102_5048" x="398.901" y="16.9949" width="55.519" height="12.7192" filterUnits="userSpaceOnUse" color-interpolation-filters="sRGB">
<feFlood flood-opacity="0" result="BackgroundImageFix"/>
<feGaussianBlur in="BackgroundImageFix" stdDeviation="1.75743"/>
<feComposite in2="SourceAlpha" operator="in" result="effect1_backgroundBlur_102_5048"/>
<feBlend mode="normal" in="SourceGraphic" in2="effect1_backgroundBlur_102_5048" result="shape"/>
</filter>
<filter id="filter7_bd_102_5048" x="465.533" y="124.924" width="53.1441" height="16.163" filterUnits="userSpaceOnUse" color-interpolation-filters="sRGB">
<feFlood flood-opacity="0" result="BackgroundImageFix"/>
<feGaussianBlur in="BackgroundImageFix" stdDeviation="1.29305"/>
<feComposite in2="SourceAlpha" operator="in" result="effect1_backgroundBlur_102_5048"/>
<feColorMatrix in="SourceAlpha" type="matrix" values="0 0 0 0 0 0 0 0 0 0 0 0 0 0 0 0 0 0 127 0" result="hardAlpha"/>
<feOffset dy="0.0646523"/>
<feColorMatrix type="matrix" values="0 0 0 0 1 0 0 0 0 1 0 0 0 0 1 0 0 0 0.15 0"/>
<feBlend mode="normal" in2="effect1_backgroundBlur_102_5048" result="effect2_dropShadow_102_5048"/>
<feBlend mode="normal" in="SourceGraphic" in2="effect2_dropShadow_102_5048" result="shape"/>
</filter>
<linearGradient id="paint0_linear_102_5048" x1="-7.50598" y1="102.726" x2="251.947" y2="97.9937" gradientUnits="userSpaceOnUse">
<stop stop-color="white"/>
<stop offset="1" stop-color="white"/>
</linearGradient>
<linearGradient id="paint1_linear_102_5048" x1="-3.02789" y1="183.5" x2="82.7006" y2="183.357" gradientUnits="userSpaceOnUse">
<stop offset="0.265462" stop-color="white"/>
<stop offset="1" stop-color="white" stop-opacity="0"/>
</linearGradient>
<linearGradient id="paint2_linear_102_5048" x1="-3.02789" y1="183.5" x2="82.7006" y2="183.357" gradientUnits="userSpaceOnUse">
<stop offset="0.265462" stop-color="white"/>
<stop offset="1" stop-color="white" stop-opacity="0"/>
</linearGradient>
<linearGradient id="paint3_linear_102_5048" x1="44.0386" y1="176.01" x2="174.887" y2="175.676" gradientUnits="userSpaceOnUse">
<stop offset="0.265462" stop-color="white"/>
<stop offset="1" stop-color="white" stop-opacity="0"/>
</linearGradient>
<linearGradient id="paint4_linear_102_5048" x1="44.0386" y1="176.01" x2="174.887" y2="175.676" gradientUnits="userSpaceOnUse">
<stop offset="0.265462" stop-color="white"/>
<stop offset="1" stop-color="white" stop-opacity="0"/>
</linearGradient>
<clipPath id="clip0_102_5048">
<rect width="615.49" height="220.67" fill="white"/>
</clipPath>
<clipPath id="clip1_102_5048">
<rect x="291.66" y="124.51" width="161" height="111" rx="4" fill="white"/>
</clipPath>
<clipPath id="clip2_102_5048">
<rect x="401.66" y="8.50977" width="49" height="107" rx="3" fill="white"/>
</clipPath>
<clipPath id="clip3_102_5048">
<rect x="403.66" y="27.5098" width="45" height="22" rx="0.646523" fill="white"/>
</clipPath>
<clipPath id="clip4_102_5048">
<rect width="43" height="8" fill="white" transform="translate(404.66 33.5098)"/>
</clipPath>
<clipPath id="clip5_102_5048">
<rect width="3.62053" height="3.62053" fill="white" transform="translate(438.339 21.6738)"/>
</clipPath>
<clipPath id="clip6_102_5048">
<rect x="467.607" y="127.51" width="49" height="107" rx="3" fill="white"/>
</clipPath>
<clipPath id="clip7_102_5048">
<rect x="225.66" y="5.50977" width="161" height="111" rx="4" fill="white"/>
</clipPath>
</defs>
</svg>
